<svg width="24" height="24" viewBox="0 0 24 24" fill="none" xmlns="http://www.w3.org/2000/svg">
<path d="M20.5952 10.6148L15.9677 15.2578C16.3623 16.3543 16.5259 18.1908 14.8262 20.4504C14.7073 20.6093 14.5555 20.7407 14.3812 20.8355C14.2069 20.9304 14.0142 20.9865 13.8162 21C13.7833 21 13.7513 21 13.7184 21C13.5364 21 13.3563 20.9642 13.1882 20.8946C13.0201 20.8249 12.8673 20.7228 12.7387 20.5941L8.56211 16.4132L4.87275 20.1051C4.74283 20.2351 4.56663 20.308 4.38291 20.308C4.19918 20.308 4.02298 20.2351 3.89307 20.1051C3.76315 19.9752 3.69017 19.799 3.69017 19.6153C3.69017 19.4316 3.76315 19.2554 3.89307 19.1255L7.58503 15.4361L3.40496 11.2561C3.26756 11.1185 3.16068 10.9535 3.09126 10.7719C3.02184 10.5903 2.99145 10.3961 3.00206 10.2019C3.01268 10.0078 3.06406 9.81808 3.15286 9.64511C3.24166 9.47214 3.36589 9.31982 3.51747 9.19805C5.71741 7.42304 7.82303 7.77181 8.74472 8.06086L13.3835 3.40568C13.5121 3.27707 13.6647 3.17504 13.8327 3.10543C14.0008 3.03583 14.1809 3 14.3627 3C14.5446 3 14.7247 3.03583 14.8927 3.10543C15.0607 3.17504 15.2134 3.27707 15.342 3.40568L20.5943 8.65715C20.8539 8.91669 20.9998 9.26869 21 9.63578C21.0002 10.0029 20.8546 10.355 20.5952 10.6148Z" fill="#C3C3C3"/>
</svg>
